<svg xmlns="http://www.w3.org/2000/svg" width="257" height="128.001" viewBox="0 0 257 128.001">
  <g id="Groupe_17" data-name="Groupe 17" transform="translate(-59 -545)">
    <g id="Soustraction_3" data-name="Soustraction 3" transform="translate(3398 1460)" fill="#ffb700">
      <path d="M -3096.5009765625 -787.4996337890625 L -3103.50146484375 -787.4996337890625 C -3103.566162109375 -801.7010498046875 -3106.39404296875 -815.477783203125 -3111.9091796875 -828.4556884765625 C -3114.5908203125 -834.7659301757812 -3117.91015625 -840.8524169921875 -3121.7744140625 -846.5462646484375 C -3125.602294921875 -852.1853637695312 -3129.99853515625 -857.4883422851562 -3134.840576171875 -862.3078002929688 C -3139.68017578125 -867.1248779296875 -3145.008056640625 -871.5001831054688 -3150.676025390625 -875.3121337890625 C -3156.39697265625 -879.158447265625 -3162.51171875 -882.4620361328125 -3168.850830078125 -885.1311645507812 C -3182.04345703125 -890.6842041015625 -3196.05615234375 -893.4998168945312 -3210.5 -893.4998168945312 C -3224.943603515625 -893.4998168945312 -3238.956298828125 -890.6842041015625 -3252.148681640625 -885.1312255859375 C -3258.488037109375 -882.4624633789062 -3264.603271484375 -879.1588745117188 -3270.32470703125 -875.3121948242188 C -3275.9951171875 -871.4981079101562 -3281.322509765625 -867.122802734375 -3286.1591796875 -862.3078002929688 C -3291.003173828125 -857.4863891601562 -3295.3994140625 -852.1834716796875 -3299.225341796875 -846.5462646484375 C -3303.09033203125 -840.8523559570312 -3306.409423828125 -834.7657470703125 -3309.090576171875 -828.4556884765625 C -3314.605712890625 -815.4788208007812 -3317.43359375 -801.7014770507812 -3317.498291015625 -787.4996337890625 L -3324.498779296875 -787.50048828125 C -3324.434326171875 -802.7806396484375 -3321.421630859375 -817.6051025390625 -3315.54150390625 -831.5689086914062 C -3312.684326171875 -838.353271484375 -3309.14794921875 -844.8970336914062 -3305.030517578125 -851.0183715820312 C -3300.951416015625 -857.082763671875 -3296.267578125 -862.7842407226562 -3291.109619140625 -867.9645385742188 C -3285.94970703125 -873.1467895507812 -3280.27294921875 -877.8508911132812 -3274.237060546875 -881.9462890625 C -3268.145751953125 -886.0798950195312 -3261.630859375 -889.631591796875 -3254.873291015625 -892.5028076171875 C -3240.819580078125 -898.4728393554688 -3225.89013671875 -901.4998779296875 -3210.5 -901.4998779296875 C -3195.109375 -901.4998779296875 -3180.18017578125 -898.4728393554688 -3166.12744140625 -892.5027465820312 C -3159.369140625 -889.6314086914062 -3152.853759765625 -886.0797119140625 -3146.7626953125 -881.9462890625 C -3140.7265625 -877.8500366210938 -3135.050048828125 -873.1458740234375 -3129.89111328125 -867.9645385742188 C -3124.732177734375 -862.7833251953125 -3120.048583984375 -857.081787109375 -3115.969970703125 -851.0183715820312 C -3111.8505859375 -844.8941650390625 -3108.314208984375 -838.3504028320312 -3105.459228515625 -831.5689086914062 C -3099.578369140625 -817.6050415039062 -3096.5654296875 -802.7803344726562 -3096.5009765625 -787.4996337890625 Z" stroke="none"/>
      <path d="M -3097.004150390625 -787.9996337890625 C -3097.13134765625 -803.037109375 -3100.12939453125 -817.624755859375 -3105.919921875 -831.3748779296875 C -3108.762451171875 -838.126708984375 -3112.283447265625 -844.641845703125 -3116.385009765625 -850.7393188476562 C -3120.445556640625 -856.7763671875 -3125.10888671875 -862.4530639648438 -3130.24560546875 -867.6117553710938 C -3135.3818359375 -872.7705078125 -3141.033447265625 -877.4541625976562 -3147.04345703125 -881.5325927734375 C -3153.10791015625 -885.6478271484375 -3159.59423828125 -889.1838989257812 -3166.322998046875 -892.0426025390625 C -3180.3134765625 -897.9862060546875 -3195.177001953125 -900.9998779296875 -3210.5 -900.9998779296875 C -3225.822509765625 -900.9998779296875 -3240.686279296875 -897.9862060546875 -3254.677734375 -892.0426025390625 C -3261.405517578125 -889.1840209960938 -3267.8916015625 -885.6480102539062 -3273.956298828125 -881.5325317382812 C -3279.966064453125 -877.455078125 -3285.617919921875 -872.7714233398438 -3290.755126953125 -867.6117553710938 C -3295.890869140625 -862.4540405273438 -3300.55419921875 -856.77734375 -3304.615478515625 -850.7393188476562 C -3308.715087890625 -844.6446533203125 -3312.236083984375 -838.1295166015625 -3315.080810546875 -831.3748168945312 C -3320.870849609375 -817.6248168945312 -3323.868408203125 -803.0372924804688 -3323.99560546875 -788.0004272460938 L -3317.994873046875 -787.9996948242188 C -3317.866943359375 -802.0927734375 -3315.027587890625 -815.7642822265625 -3309.55078125 -828.6511840820312 C -3306.857177734375 -834.9910888671875 -3303.522216796875 -841.1063842773438 -3299.638916015625 -846.8270874023438 C -3295.795166015625 -852.4906005859375 -3291.37841796875 -857.8182983398438 -3286.511962890625 -862.662109375 C -3281.65283203125 -867.4995727539062 -3276.300537109375 -871.8952026367188 -3270.603515625 -875.7271118164062 C -3264.85546875 -879.5917358398438 -3258.711669921875 -882.9107666015625 -3252.3427734375 -885.592041015625 C -3239.088623046875 -891.1710205078125 -3225.010498046875 -893.9998168945312 -3210.5 -893.9998168945312 C -3195.9892578125 -893.9998168945312 -3181.9111328125 -891.1710205078125 -3168.65673828125 -885.5919799804688 C -3162.2880859375 -882.910400390625 -3156.14453125 -879.5913696289062 -3150.39697265625 -875.72705078125 C -3144.70263671875 -871.8973388671875 -3139.349853515625 -867.501708984375 -3134.48779296875 -862.6621704101562 C -3129.623046875 -857.8202514648438 -3125.20654296875 -852.4925537109375 -3121.36083984375 -846.8270874023438 C -3117.478271484375 -841.1064453125 -3114.143310546875 -834.9912109375 -3111.448974609375 -828.6512451171875 C -3105.97216796875 -815.7632446289062 -3103.1328125 -802.09228515625 -3103.0048828125 -787.9996337890625 L -3097.004150390625 -787.9996337890625 M -3316.99951171875 -786.9995727539062 L -3324.999755859375 -787.0005493164062 C -3324.999755859375 -802.5260620117188 -3321.97216796875 -817.5859375 -3316.00244140625 -831.762939453125 C -3313.132568359375 -838.5772705078125 -3309.58056640625 -845.1495971679688 -3305.4453125 -851.2974243164062 C -3301.348388671875 -857.3882446289062 -3296.644287109375 -863.1146240234375 -3291.4638671875 -868.3173217773438 C -3286.281494140625 -873.522216796875 -3280.580078125 -878.246826171875 -3274.517822265625 -882.3600463867188 C -3268.3994140625 -886.511962890625 -3261.855712890625 -890.0792846679688 -3255.06884765625 -892.9629516601562 C -3240.952880859375 -898.9594116210938 -3225.957763671875 -901.9998779296875 -3210.5 -901.9998779296875 C -3195.041748046875 -901.9998779296875 -3180.046875 -898.9594116210938 -3165.931884765625 -892.9629516601562 C -3159.14453125 -890.0792846679688 -3152.600341796875 -886.511962890625 -3146.48193359375 -882.3600463867188 C -3140.41943359375 -878.2459716796875 -3134.71826171875 -873.5213012695312 -3129.536865234375 -868.3173217773438 C -3124.35546875 -863.1135864257812 -3119.6513671875 -857.3872680664062 -3115.55517578125 -851.2974243164062 C -3111.41748046875 -845.146240234375 -3107.86572265625 -838.5739135742188 -3104.998291015625 -831.762939453125 C -3099.02734375 -817.5845947265625 -3096 -802.5240478515625 -3096 -786.9996337890625 L -3104.000244140625 -786.9996337890625 C -3104.000244140625 -801.3096313476562 -3106.815673828125 -815.1913452148438 -3112.369384765625 -828.2601318359375 C -3115.038330078125 -834.5403442382812 -3118.341796875 -840.5982055664062 -3122.188232421875 -846.2655029296875 C -3125.998046875 -851.8779907226562 -3130.37353515625 -857.1561889648438 -3135.193359375 -861.9534301757812 C -3140.01025390625 -866.748046875 -3145.313232421875 -871.1029663085938 -3150.955078125 -874.897216796875 C -3156.6494140625 -878.7257080078125 -3162.73583984375 -882.0138549804688 -3169.044921875 -884.6703491210938 C -3182.175537109375 -890.1973266601562 -3196.123046875 -892.9998168945312 -3210.5 -892.9998168945312 C -3224.876708984375 -892.9998168945312 -3238.82421875 -890.1973266601562 -3251.954833984375 -884.6703491210938 C -3258.26416015625 -882.01416015625 -3264.350830078125 -878.7260131835938 -3270.045654296875 -874.897216796875 C -3275.689453125 -871.10107421875 -3280.9921875 -866.7461547851562 -3285.806396484375 -861.9534301757812 C -3290.628173828125 -857.1542358398438 -3295.003662109375 -851.8760375976562 -3298.8115234375 -846.2655029296875 C -3302.65869140625 -840.5980224609375 -3305.962158203125 -834.5401000976562 -3308.63037109375 -828.2601318359375 C -3314.183837890625 -815.1929321289062 -3316.99951171875 -801.3112182617188 -3316.99951171875 -787.0005493164062 L -3316.99951171875 -786.9995727539062 Z" stroke="none" fill="#02182b"/>
    </g>
    <g id="Tracé_8" data-name="Tracé 8" transform="translate(184 545)" fill="#b00">
      <path d="M 6.5 21.5441951751709 L 0.5 21.5441951751709 L 0.5 0.5000047087669373 L 6.5 0.5000047087669373 L 6.5 21.5441951751709 Z" stroke="none"/>
      <path d="M 1 0.9999942779541016 L 1 21.04418563842773 L 6 21.04418563842773 L 6 0.9999942779541016 L 1 0.9999942779541016 M 0 -5.7220458984375e-06 L 7 -5.7220458984375e-06 L 7 22.04418563842773 L 0 22.04418563842773 L 0 -5.7220458984375e-06 Z" stroke="none" fill="#02182b"/>
    </g>
    <g id="Tracé_10" data-name="Tracé 10" transform="translate(316 666) rotate(90)" fill="#0098ff">
      <path d="M 0.4824748635292053 21.70743179321289 L 0.4995945394039154 0.4999963939189911 L 6.499997615814209 0.4999963939189911 L 6.499997615814209 21.51567268371582 L 0.4824748635292053 21.70743179321289 Z" stroke="none"/>
      <path d="M 0.9991912841796875 0.9999961853027344 L 0.9828920364379883 21.19123840332031 L 5.999998092651367 21.03135871887207 L 5.999998092651367 0.9999961853027344 L 0.9991912841796875 0.9999961853027344 M -2.384185791015625e-06 -3.814697265625e-06 L 6.999997615814209 -3.814697265625e-06 L 6.999997615814209 21.99999618530273 L -0.01794195175170898 22.22363662719727 L -2.384185791015625e-06 -3.814697265625e-06 Z" stroke="none" fill="#02182b"/>
    </g>
    <g id="Tracé_9" data-name="Tracé 9" transform="translate(81 666) rotate(90)" fill="#0098ff">
      <path d="M 6.5 21.5 L 0.5000824332237244 21.5 L 0.5035752058029175 0.3129546344280243 L 6.5 0.4857934415340424 L 6.5 21.5 Z" stroke="none"/>
      <path d="M 1.003490447998047 0.8275699615478516 L 1.000164985656738 21 L 6 21 L 6 0.9715862274169922 L 1.003490447998047 0.8275699615478516 M 0.003660202026367188 -0.20166015625 L 7 0 L 7 22 L 0 22 L 0.003660202026367188 -0.20166015625 Z" stroke="none" fill="#02182b"/>
    </g>
    <g id="Tracé_6" data-name="Tracé 6" transform="matrix(-0.545, 0.839, -0.839, -0.545, 104.97, 606.1)" fill="#0098ff">
      <path d="M 2.502413511276245 18.3930778503418 L 0.4984709024429321 18.3930778503418 L 0.4440020620822906 0.5952330827713013 L 2.587723255157471 0.7577069997787476 L 2.502413511276245 18.3930778503418 Z" stroke="none"/>
      <path d="M 0.9456577301025391 1.134687423706055 L 0.9969453811645508 17.8930778503418 L 2.004820346832275 17.8930778503418 L 2.085469961166382 1.221075057983398 L 0.9456577301025391 1.134687423706055 M -0.05765366554260254 0.05577850341796875 L 3.089966535568237 0.2943382263183594 L 2.999996423721313 18.8930778503418 L -3.576278686523438e-06 18.8930778503418 L -0.05765366554260254 0.05577850341796875 Z" stroke="none" fill="#02182b"/>
    </g>
    <g id="Tracé_7" data-name="Tracé 7" transform="matrix(0.545, 0.839, -0.839, 0.545, 286.24, 595.762)" fill="#0098ff">
      <path d="M 0.5475381016731262 18.58720016479492 L 0.5574615001678467 0.500008225440979 L 2.558900594711304 0.5000015497207642 L 2.60067343711853 18.38763999938965 L 0.5475381016731262 18.58720016479492 Z" stroke="none"/>
      <path d="M 1.047840595245361 18.03621101379395 L 2.099611282348633 17.93398094177246 L 2.060065507888794 1.000003218650818 L 1.05718731880188 1.000006556510925 L 1.047840595245361 18.03621101379395 M 0.04723566025495529 19.13817977905273 L 0.05773565918207169 9.889526154438499e-06 L 3.057735681533813 -1.104736355728164e-07 L 3.101735591888428 18.84128952026367 L 0.04723566025495529 19.13817977905273 Z" stroke="none" fill="#02182b"/>
    </g>
  </g>
</svg>
