<svg xmlns="http://www.w3.org/2000/svg" width="21.599" height="30.09" viewBox="0 0 21.599 30.09">
  <path id="Tracé_3" data-name="Tracé 3" d="M22.7,4.537a4.282,4.282,0,1,0,4.325,4.281A4.3,4.3,0,0,0,22.7,4.537Zm-9.544,6.446,5.649,3.262a.268.268,0,0,1,.13.184l0,.048V32.209a1.343,1.343,0,0,0,2.684.088l0-.088V26.03a1.075,1.075,0,0,1,2.146-.08l0,.08v6.179a1.343,1.343,0,0,0,2.684.088l0-.088V14.478a.269.269,0,0,1,.134-.233l5.649-3.262.1-.059a1.316,1.316,0,0,0,.583-.73,1.019,1.019,0,0,0-.731-1.265,1.316,1.316,0,0,0-.924.14l-.1.053-4.66,2.691a4.89,4.89,0,0,1-7.619,0l-4.66-2.691a1.365,1.365,0,0,0-1.023-.193,1.019,1.019,0,0,0-.731,1.265,1.316,1.316,0,0,0,.583.73Zm-1.2-.642a1.557,1.557,0,0,1,1.117-1.934,1.855,1.855,0,0,1,1.307.186l.116.063,3.788,2.187a4.766,4.766,0,0,1-.449-2.025,4.862,4.862,0,0,1,9.724,0,4.766,4.766,0,0,1-.449,2.025L30.9,8.657l.116-.063a1.855,1.855,0,0,1,1.307-.186,1.557,1.557,0,0,1,1.117,1.934,1.854,1.854,0,0,1-.815,1.038l-.112.069L27,14.632V32.209a1.881,1.881,0,0,1-3.758.1l0-.1V26.03a.537.537,0,0,0-1.071-.063l0,.063v6.179a1.881,1.881,0,0,1-3.758.1l0-.1V14.632l-5.514-3.184A1.9,1.9,0,0,1,11.961,10.342Z" transform="translate(-11.901 -4)" fill="#02182b"/>
</svg>
